{
	"asset":{
		"generator":"Khronos glTF Blender I/O v3.6.27",
		"version":"2.0"
	},
	"scene":0,
	"scenes":[
		{
			"name":"Scene",
			"nodes":[
				0
			]
		}
	],
	"nodes":[
		{
			"mesh":0,
			"name":"AM108_068_09_AM108_068_01_0",
			"rotation":[
				-0.7761600613594055,
				0.13686412572860718,
				0.3786148130893707,
				0.48527786135673523
			],
			"translation":[
				-0.48433971405029297,
				11.084415435791016,
				-0.7418622970581055
			]
		}
	],
	"materials":[
		{
			"doubleSided":true,
			"name":"AM108_068_01",
			"pbrMetallicRoughness":{
				"baseColorTexture":{
					"index":0
				},
				"metallicFactor":0,
				"roughnessFactor":0.8929713368415833
			}
		}
	],
	"meshes":[
		{
			"name":"AM108_068_09_AM108_068_01_0",
			"primitives":[
				{
					"attributes":{
						"POSITION":0,
						"NORMAL":1,
						"TEXCOORD_0":2,
						"TEXCOORD_1":3
					},
					"indices":4,
					"material":0
				}
			]
		}
	],
	"textures":[
		{
			"sampler":0,
			"source":0
		}
	],
	"images":[
		{
			"mimeType":"image/jpeg",
			"name":"AM108_068_01_baseColor",
			"uri":"textures/AM108_068_01_baseColor.jpg"
		}
	],
	"accessors":[
		{
			"bufferView":0,
			"componentType":5126,
			"count":42247,
			"max":[
				4.285175323486328,
				3.5860800743103027,
				9.243109703063965
			],
			"min":[
				-2.380889415740967,
				-6.4922332763671875,
				-9.879124641418457
			],
			"type":"VEC3"
		},
		{
			"bufferView":1,
			"componentType":5126,
			"count":42247,
			"type":"VEC3"
		},
		{
			"bufferView":2,
			"componentType":5126,
			"count":42247,
			"type":"VEC2"
		},
		{
			"bufferView":3,
			"componentType":5126,
			"count":42247,
			"type":"VEC2"
		},
		{
			"bufferView":4,
			"componentType":5123,
			"count":61170,
			"type":"SCALAR"
		}
	],
	"bufferViews":[
		{
			"buffer":0,
			"byteLength":506964,
			"byteOffset":0,
			"target":34962
		},
		{
			"buffer":0,
			"byteLength":506964,
			"byteOffset":506964,
			"target":34962
		},
		{
			"buffer":0,
			"byteLength":337976,
			"byteOffset":1013928,
			"target":34962
		},
		{
			"buffer":0,
			"byteLength":337976,
			"byteOffset":1351904,
			"target":34962
		},
		{
			"buffer":0,
			"byteLength":122340,
			"byteOffset":1689880,
			"target":34963
		}
	],
	"samplers":[
		{
			"magFilter":9729,
			"minFilter":9987
		}
	],
	"buffers":[
		{
			"byteLength":1812220,
			"uri":"1.bin"
		}
	]
}
