{
	"asset":{
		"generator":"Khronos glTF Blender I/O v3.6.27",
		"version":"2.0"
	},
	"scene":0,
	"scenes":[
		{
			"name":"Scene",
			"nodes":[
				0
			]
		}
	],
	"nodes":[
		{
			"mesh":0,
			"name":"AM108_068_10_AM108_068_05_0",
			"rotation":[
				-0.6532815098762512,
				0.27059805393218994,
				0.27059805393218994,
				0.6532815098762512
			],
			"translation":[
				0.16007614135742188,
				10.746150016784668,
				-0.5540790557861328
			]
		}
	],
	"materials":[
		{
			"doubleSided":true,
			"name":"AM108_068_05_1",
			"pbrMetallicRoughness":{
				"baseColorTexture":{
					"index":0
				},
				"metallicFactor":0,
				"roughnessFactor":0.8929713368415833
			}
		}
	],
	"meshes":[
		{
			"name":"AM108_068_10_AM108_068_05_0",
			"primitives":[
				{
					"attributes":{
						"POSITION":0,
						"NORMAL":1,
						"TEXCOORD_0":2,
						"TEXCOORD_1":3
					},
					"indices":4,
					"material":0
				}
			]
		}
	],
	"textures":[
		{
			"sampler":0,
			"source":0
		}
	],
	"images":[
		{
			"mimeType":"image/jpeg",
			"name":"AM108_068_05_baseColor",
			"uri":"textures/AM108_068_05_baseColor.jpg"
		}
	],
	"accessors":[
		{
			"bufferView":0,
			"componentType":5126,
			"count":13935,
			"max":[
				2.938664436340332,
				1.9872519969940186,
				11.369610786437988
			],
			"min":[
				-1.626918077468872,
				-3.339726686477661,
				-11.031035423278809
			],
			"type":"VEC3"
		},
		{
			"bufferView":1,
			"componentType":5126,
			"count":13935,
			"type":"VEC3"
		},
		{
			"bufferView":2,
			"componentType":5126,
			"count":13935,
			"type":"VEC2"
		},
		{
			"bufferView":3,
			"componentType":5126,
			"count":13935,
			"type":"VEC2"
		},
		{
			"bufferView":4,
			"componentType":5123,
			"count":71358,
			"type":"SCALAR"
		}
	],
	"bufferViews":[
		{
			"buffer":0,
			"byteLength":167220,
			"byteOffset":0,
			"target":34962
		},
		{
			"buffer":0,
			"byteLength":167220,
			"byteOffset":167220,
			"target":34962
		},
		{
			"buffer":0,
			"byteLength":111480,
			"byteOffset":334440,
			"target":34962
		},
		{
			"buffer":0,
			"byteLength":111480,
			"byteOffset":445920,
			"target":34962
		},
		{
			"buffer":0,
			"byteLength":142716,
			"byteOffset":557400,
			"target":34963
		}
	],
	"samplers":[
		{
			"magFilter":9729,
			"minFilter":9987
		}
	],
	"buffers":[
		{
			"byteLength":700116,
			"uri":"2.bin"
		}
	]
}
