{
	"asset":{
		"generator":"Khronos glTF Blender I/O v3.6.27",
		"version":"2.0"
	},
	"scene":0,
	"scenes":[
		{
			"name":"Scene",
			"nodes":[
				0
			]
		}
	],
	"nodes":[
		{
			"mesh":0,
			"name":"AM108_068_13_AM108_068_01_0",
			"rotation":[
				-0.6601374745368958,
				0.5248831510543823,
				0.35265079140663147,
				0.4054056406021118
			],
			"translation":[
				0.4879951477050781,
				17.030311584472656,
				-0.2863950729370117
			]
		}
	],
	"materials":[
		{
			"doubleSided":true,
			"name":"AM108_068_01",
			"pbrMetallicRoughness":{
				"baseColorTexture":{
					"index":0
				},
				"metallicFactor":0,
				"roughnessFactor":0.8929713368415833
			}
		}
	],
	"meshes":[
		{
			"name":"AM108_068_13_AM108_068_01_0",
			"primitives":[
				{
					"attributes":{
						"POSITION":0,
						"NORMAL":1,
						"TEXCOORD_0":2,
						"TEXCOORD_1":3
					},
					"indices":4,
					"material":0
				}
			]
		}
	],
	"textures":[
		{
			"sampler":0,
			"source":0
		}
	],
	"images":[
		{
			"mimeType":"image/jpeg",
			"name":"AM108_068_01_baseColor",
			"uri":"textures/AM108_068_01_baseColor.jpg"
		}
	],
	"accessors":[
		{
			"bufferView":0,
			"componentType":5126,
			"count":42246,
			"max":[
				5.664536476135254,
				4.227418422698975,
				4.231758117675781
			],
			"min":[
				-2.7292098999023438,
				-2.504791736602783,
				-15.73204517364502
			],
			"type":"VEC3"
		},
		{
			"bufferView":1,
			"componentType":5126,
			"count":42246,
			"type":"VEC3"
		},
		{
			"bufferView":2,
			"componentType":5126,
			"count":42246,
			"type":"VEC2"
		},
		{
			"bufferView":3,
			"componentType":5126,
			"count":42246,
			"type":"VEC2"
		},
		{
			"bufferView":4,
			"componentType":5123,
			"count":61170,
			"type":"SCALAR"
		}
	],
	"bufferViews":[
		{
			"buffer":0,
			"byteLength":506952,
			"byteOffset":0,
			"target":34962
		},
		{
			"buffer":0,
			"byteLength":506952,
			"byteOffset":506952,
			"target":34962
		},
		{
			"buffer":0,
			"byteLength":337968,
			"byteOffset":1013904,
			"target":34962
		},
		{
			"buffer":0,
			"byteLength":337968,
			"byteOffset":1351872,
			"target":34962
		},
		{
			"buffer":0,
			"byteLength":122340,
			"byteOffset":1689840,
			"target":34963
		}
	],
	"samplers":[
		{
			"magFilter":9729,
			"minFilter":9987
		}
	],
	"buffers":[
		{
			"byteLength":1812180,
			"uri":"3.bin"
		}
	]
}
