{
	"asset":{
		"generator":"Khronos glTF Blender I/O v3.6.27",
		"version":"2.0"
	},
	"scene":0,
	"scenes":[
		{
			"name":"Scene",
			"nodes":[
				0
			]
		}
	],
	"nodes":[
		{
			"mesh":0,
			"name":"AM108_068_12_AM108_068_03_0",
			"rotation":[
				-0.662075400352478,
				0.33003562688827515,
				0.2777857482433319,
				0.6128358244895935
			],
			"translation":[
				1.5361452102661133,
				6.862826824188232,
				0.3098917007446289
			]
		}
	],
	"materials":[
		{
			"doubleSided":true,
			"name":"AM108_068_05_0",
			"pbrMetallicRoughness":{
				"baseColorTexture":{
					"index":0
				},
				"metallicFactor":0,
				"roughnessFactor":0.8929713368415833
			}
		}
	],
	"meshes":[
		{
			"name":"AM108_068_12_AM108_068_03_0",
			"primitives":[
				{
					"attributes":{
						"POSITION":0,
						"NORMAL":1,
						"TEXCOORD_0":2,
						"TEXCOORD_1":3
					},
					"indices":4,
					"material":0
				}
			]
		}
	],
	"textures":[
		{
			"sampler":0,
			"source":0
		}
	],
	"images":[
		{
			"mimeType":"image/jpeg",
			"name":"AM108_068_05_baseColor",
			"uri":"textures/AM108_068_05_baseColor.jpg"
		}
	],
	"accessors":[
		{
			"bufferView":0,
			"componentType":5126,
			"count":7462,
			"max":[
				2.1092398166656494,
				1.494194746017456,
				10.896302223205566
			],
			"min":[
				-0.9467549324035645,
				-3.8596296310424805,
				-6.849819660186768
			],
			"type":"VEC3"
		},
		{
			"bufferView":1,
			"componentType":5126,
			"count":7462,
			"type":"VEC3"
		},
		{
			"bufferView":2,
			"componentType":5126,
			"count":7462,
			"type":"VEC2"
		},
		{
			"bufferView":3,
			"componentType":5126,
			"count":7462,
			"type":"VEC2"
		},
		{
			"bufferView":4,
			"componentType":5123,
			"count":38661,
			"type":"SCALAR"
		}
	],
	"bufferViews":[
		{
			"buffer":0,
			"byteLength":89544,
			"byteOffset":0,
			"target":34962
		},
		{
			"buffer":0,
			"byteLength":89544,
			"byteOffset":89544,
			"target":34962
		},
		{
			"buffer":0,
			"byteLength":59696,
			"byteOffset":179088,
			"target":34962
		},
		{
			"buffer":0,
			"byteLength":59696,
			"byteOffset":238784,
			"target":34962
		},
		{
			"buffer":0,
			"byteLength":77322,
			"byteOffset":298480,
			"target":34963
		}
	],
	"samplers":[
		{
			"magFilter":9729,
			"minFilter":9987
		}
	],
	"buffers":[
		{
			"byteLength":375804,
			"uri":"4.bin"
		}
	]
}
