{
	"asset":{
		"generator":"Khronos glTF Blender I/O v3.6.27",
		"version":"2.0"
	},
	"scene":0,
	"scenes":[
		{
			"name":"Scene",
			"nodes":[
				0
			]
		}
	],
	"nodes":[
		{
			"mesh":0,
			"name":"AM108_068_11_AM108_068_03_0",
			"rotation":[
				-0.5587477087974548,
				0.2902919054031372,
				0.23560164868831635,
				0.740286111831665
			],
			"translation":[
				1.0659856796264648,
				6.84210729598999,
				0.5469417572021484
			]
		}
	],
	"materials":[
		{
			"doubleSided":true,
			"name":"AM108_068_04",
			"pbrMetallicRoughness":{
				"baseColorTexture":{
					"index":0
				},
				"metallicFactor":0,
				"roughnessFactor":0.8929713368415833
			}
		}
	],
	"meshes":[
		{
			"name":"AM108_068_11_AM108_068_03_0",
			"primitives":[
				{
					"attributes":{
						"POSITION":0,
						"NORMAL":1,
						"TEXCOORD_0":2,
						"TEXCOORD_1":3
					},
					"indices":4,
					"material":0
				}
			]
		}
	],
	"textures":[
		{
			"sampler":0,
			"source":0
		}
	],
	"images":[
		{
			"mimeType":"image/jpeg",
			"name":"AM108_068_04_baseColor",
			"uri":"textures/AM108_068_04_baseColor.jpg"
		}
	],
	"accessors":[
		{
			"bufferView":0,
			"componentType":5126,
			"count":7457,
			"max":[
				1.9627338647842407,
				3.243659019470215,
				10.96484088897705
			],
			"min":[
				-0.574042558670044,
				-1.1014412641525269,
				-6.913136005401611
			],
			"type":"VEC3"
		},
		{
			"bufferView":1,
			"componentType":5126,
			"count":7457,
			"type":"VEC3"
		},
		{
			"bufferView":2,
			"componentType":5126,
			"count":7457,
			"type":"VEC2"
		},
		{
			"bufferView":3,
			"componentType":5126,
			"count":7457,
			"type":"VEC2"
		},
		{
			"bufferView":4,
			"componentType":5123,
			"count":38661,
			"type":"SCALAR"
		}
	],
	"bufferViews":[
		{
			"buffer":0,
			"byteLength":89484,
			"byteOffset":0,
			"target":34962
		},
		{
			"buffer":0,
			"byteLength":89484,
			"byteOffset":89484,
			"target":34962
		},
		{
			"buffer":0,
			"byteLength":59656,
			"byteOffset":178968,
			"target":34962
		},
		{
			"buffer":0,
			"byteLength":59656,
			"byteOffset":238624,
			"target":34962
		},
		{
			"buffer":0,
			"byteLength":77322,
			"byteOffset":298280,
			"target":34963
		}
	],
	"samplers":[
		{
			"magFilter":9729,
			"minFilter":9987
		}
	],
	"buffers":[
		{
			"byteLength":375604,
			"uri":"5.bin"
		}
	]
}
